<!-- public/icons/linkedin.svg -->
<svg xmlns="http://www.w3.org/2000/svg" viewBox="0 0 24 24" aria-hidden="true">
  <path fill="#FFFFFF" d="M20.45 20.45h-3.553v-5.569c0-1.329-.026-3.04-1.852-3.04-1.855 0-2.138 1.448-2.138 2.944v5.665H9.354V9h3.411v1.561h.047c.476-.9 1.637-1.852 3.37-1.852 3.604 0 4.267 2.372 4.267 5.456v6.285zM5.337 7.433a2.063 2.063 0 1 1 0-4.126 2.063 2.063 0 0 1 0 4.126zM7.113 20.45H3.56V9h3.553v11.45zM22.225 0H1.771C.792 0 0 .78 0 1.744v20.512C0 23.22.792 24 1.771 24h20.454C23.204 24 24 23.22 24 22.256V1.744C24 .78 23.204 0 22.225 0z"></path>
</svg>
